<svg xmlns="http://www.w3.org/2000/svg" viewBox="0 0 400 240" fill="none" role="img" aria-label="Simple Controls">
  <rect width="400" height="240" rx="16" fill="#F3F4F6"/>
  <rect x="40" y="24" width="320" height="140" rx="12" fill="#1C1C1E"/>
  <ellipse cx="200" cy="88" rx="48" ry="40" fill="#374151"/>
  <rect x="60" y="176" width="280" height="48" rx="24" fill="#1C1C1E" fill-opacity="0.85"/>
  <circle cx="110" cy="200" r="18" fill="white" fill-opacity="0.2"/>
  <path d="M104 200h12M110 194v12" stroke="white" stroke-width="2" stroke-linecap="round" transform="translate(0,-2)"/>
  <circle cx="160" cy="200" r="18" fill="white" fill-opacity="0.2"/>
  <rect x="152" y="192" width="16" height="10" rx="2" stroke="white" stroke-width="2" fill="none"/>
  <circle cx="200" cy="200" r="22" fill="#30D158"/>
  <path d="M192 200h16M200 192v16" stroke="white" stroke-width="2.5" stroke-linecap="round"/>
  <circle cx="250" cy="200" r="18" fill="white" fill-opacity="0.2"/>
  <path d="M244 196l8 4-8 4v-8z" fill="white"/>
  <circle cx="300" cy="200" r="18" fill="#FF453A" fill-opacity="0.9"/>
  <path d="M294 200h12" stroke="white" stroke-width="2" stroke-linecap="round"/>
</svg>
