<svg xmlns="http://www.w3.org/2000/svg" viewBox="0 0 400 240" fill="none" role="img" aria-label="Chat Safely">
  <rect width="400" height="240" rx="16" fill="#F3F4F6"/>
  <path d="M200 44L128 72v44c0 44 32 68 72 80 40-12 72-36 72-80V72L200 44z" fill="#0A84FF" fill-opacity="0.15" stroke="#0A84FF" stroke-width="3"/>
  <path d="M200 44L128 72v44c0 44 32 68 72 80 40-12 72-36 72-80V72L200 44z" fill="#30D158" fill-opacity="0.25"/>
  <path d="M176 116l16 16 32-36" stroke="#30D158" stroke-width="5" stroke-linecap="round" stroke-linejoin="round"/>
  <circle cx="120" cy="168" r="20" fill="#FF453A" fill-opacity="0.15"/>
  <path d="M114 168h12M120 162v12" stroke="#FF453A" stroke-width="2" stroke-linecap="round"/>
  <text x="120" y="198" text-anchor="middle" font-family="system-ui,sans-serif" font-size="11" fill="#6B7280">Report</text>
  <rect x="260" y="152" width="80" height="36" rx="18" fill="white" stroke="#E5E7EB" stroke-width="1"/>
  <text x="300" y="175" text-anchor="middle" font-family="system-ui,sans-serif" font-size="12" font-weight="500" fill="#374151">Stay safe</text>
</svg>
